# xmcd
#
# Track frame offsets:
#   150
#   29579
#   53308
#   78199
#   103707
#   127308
#   144209
#   163902
#   185702
#   202716
#   219296
#   239442
#   261856
#   286767
#
# Disc length: 4227 seconds
#
# Revision: 0
# Processed by: cddbd v1.5.2PL0 Copyright (c) Steve Scherf et al.
# Submitted via: uFREEDB ActiveX Control 1.5
#
DISCID=c210810e
DTITLE=pr genis - jesus esta voltando
DYEAR=2008
DGENRE=Gospel and Religious
TTITLE0=renova-me senhor
TTITLE1=jesus esta voltando
TTITLE2=a vitoria vem
TTITLE3=sem jesus não dá
TTITLE4=vamos louvar
TTITLE5=amigo fiel
TTITLE6=últimos dias
TTITLE7=fale com ele
TTITLE8=senhor jeová
TTITLE9=crente fiel
TTITLE10=vou embora
TTITLE11=deus provedor
TTITLE12=mentira é de satanic
TTITLE13=oração
EXTD=
EXTT0=
EXTT1=
EXTT2=
EXTT3=
EXTT4=
EXTT5=
EXTT6=
EXTT7=
EXTT8=
EXTT9=
EXTT10=
EXTT11=
EXTT12=
EXTT13=
PLAYORDER=
